<?xml version="1.0" encoding="utf-8"?>
<!-- Generator: Adobe Illustrator 18.0.0, SVG Export Plug-In . SVG Version: 6.00 Build 0)  -->
<!DOCTYPE svg PUBLIC "-//W3C//DTD SVG 1.1//EN" "http://www.w3.org/Graphics/SVG/1.1/DTD/svg11.dtd">
<svg version="1.1" id="Layer_1" xmlns="http://www.w3.org/2000/svg" xmlns:xlink="http://www.w3.org/1999/xlink" x="0px" y="0px"
	 viewBox="0 0 394.7 271.9" enable-background="new 0 0 394.7 271.9" xml:space="preserve">
<polygon fill="#E58740" points="394.7,75.2 306,75.2 199,271.9 287.7,271.9 "/>
<polygon fill="#E58740" points="139.7,176.6 95,94.5 0,271.9 88.7,271.9 "/>
<ellipse transform="matrix(0.8607 -0.5091 0.5091 0.8607 -36.9329 84.2378)" fill="#248B8A" cx="135.5" cy="109.6" rx="12.1" ry="15.9"/>
<ellipse transform="matrix(0.8675 -0.4974 0.4974 0.8675 -25.9422 95.3684)" fill="#248B8A" cx="166.1" cy="96.4" rx="8.4" ry="13.4"/>
<ellipse transform="matrix(0.8897 -0.4566 0.4566 0.8897 -19.5842 95.4345)" fill="#248B8A" cx="187.7" cy="88.2" rx="6.9" ry="11.2"/>
<ellipse transform="matrix(0.8803 -0.4745 0.4745 0.8803 -56.0289 96.4758)" fill="#248B8A" cx="163.1" cy="159.3" rx="12.3" ry="15.6"/>
<ellipse transform="matrix(0.8803 -0.4745 0.4745 0.8803 -42.8323 106.667)" fill="#248B8A" cx="189.9" cy="138.2" rx="9.2" ry="13.3"/>
<ellipse transform="matrix(0.8803 -0.4745 0.4745 0.8803 -34.2346 113.6342)" fill="#248B8A" cx="208" cy="124.7" rx="6.6" ry="10.7"/>
<ellipse transform="matrix(0.9238 -0.3828 0.3828 0.9238 -53.1266 94.8049)" fill="#248B8A" cx="211.7" cy="180.9" rx="8.7" ry="13.3"/>
<ellipse transform="matrix(0.9695 -0.245 0.245 0.9695 -45.1631 52.877)" fill="#248B8A" cx="189.9" cy="208" rx="11.4" ry="16.3"/>
<ellipse transform="matrix(0.8931 -0.4499 0.4499 0.8931 -48.0332 119.9078)" fill="#248B8A" cx="228.3" cy="161" rx="6.6" ry="10.5"/>
<ellipse transform="matrix(0.8607 -0.5091 0.5091 0.8607 -16.1947 63.9032)" fill="#248B8A" cx="108.7" cy="61.5" rx="12" ry="15.3"/>
<ellipse transform="matrix(0.8607 -0.5091 0.5091 0.8607 -9.1755 80.3766)" fill="#248B8A" cx="142.3" cy="57" rx="8.1" ry="13.1"/>
<ellipse transform="matrix(0.8607 -0.5091 0.5091 0.8607 -3.5753 93.4071)" fill="#248B8A" cx="168.9" cy="53.2" rx="6.4" ry="11.1"/>
<ellipse transform="matrix(0.8766 -0.4812 0.4812 0.8766 13.0827 70.625)" fill="#248B8A" cx="144.2" cy="9.8" rx="6.6" ry="10.6"/>
<ellipse transform="matrix(0.8607 -0.5091 0.5091 0.8607 10.2196 61.6366)" fill="#248B8A" cx="117.8" cy="12.1" rx="8.1" ry="12.8"/>
<ellipse transform="matrix(0.8607 -0.5091 0.5091 0.8607 3.003 44.6923)" fill="#248B8A" cx="83.2" cy="16.9" rx="12.1" ry="15.3"/>
</svg>
